<svg id="Layer_1" data-name="Layer 1" xmlns="http://www.w3.org/2000/svg" viewBox="0 0 115.62 115.67"><defs><style>.cls-1{stroke:#000;}.cls-1,.cls-2{stroke-miterlimit:10;}.cls-2{fill:#dd1c13;stroke:#dd1c13;}</style></defs><title>그래프</title><path class="cls-1" d="M116.65,21.14H97.47a1.13,1.13,0,0,1,0-2.25h19.18a.65.65,0,0,0,.66-.65V10.37a.65.65,0,0,0-.66-.65H38.09a1.13,1.13,0,1,1,0-2.25h78.56a2.91,2.91,0,0,1,2.91,2.9v7.87A2.91,2.91,0,0,1,116.65,21.14Z" transform="translate(-4.43 -1.91)"/><path class="cls-1" d="M85.66,21.14H7.84a2.91,2.91,0,0,1-2.91-2.9V10.37a2.91,2.91,0,0,1,2.91-2.9H25a1.13,1.13,0,0,1,0,2.25H7.84a.66.66,0,0,0-.66.65v7.87a.66.66,0,0,0,.66.65H85.66a1.13,1.13,0,0,1,0,2.25Z" transform="translate(-4.43 -1.91)"/><path class="cls-1" d="M62.25,110.67a1.12,1.12,0,0,1-1.13-1.13V88a1.13,1.13,0,1,1,2.25,0v21.53A1.12,1.12,0,0,1,62.25,110.67Z" transform="translate(-4.43 -1.91)"/><path class="cls-1" d="M62.25,9.72a1.13,1.13,0,0,1-1.13-1.13v-5a1.13,1.13,0,1,1,2.25,0V8.59A1.13,1.13,0,0,1,62.25,9.72Z" transform="translate(-4.43 -1.91)"/><path class="cls-1" d="M45.06,117.08a1.13,1.13,0,0,1-.79-1.92L61.45,98A1.12,1.12,0,0,1,63,99.57L45.86,116.75A1.13,1.13,0,0,1,45.06,117.08Z" transform="translate(-4.43 -1.91)"/><path class="cls-1" d="M79.43,117.08a1.09,1.09,0,0,1-.79-.33L61.45,99.57A1.12,1.12,0,0,1,63,98l17.18,17.18a1.12,1.12,0,0,1,0,1.59A1.11,1.11,0,0,1,79.43,117.08Z" transform="translate(-4.43 -1.91)"/><path class="cls-1" d="M112.25,89.13h-100A1.13,1.13,0,0,1,11.11,88V20a1.13,1.13,0,1,1,2.25,0V86.88h97.77V20a1.13,1.13,0,1,1,2.25,0V88A1.13,1.13,0,0,1,112.25,89.13Z" transform="translate(-4.43 -1.91)"/><path class="cls-1" d="M25.72,80.14A1.12,1.12,0,0,1,24.6,79V32.38a1.13,1.13,0,0,1,2.25,0V79A1.13,1.13,0,0,1,25.72,80.14Z" transform="translate(-4.43 -1.91)"/><path class="cls-1" d="M102.14,75.64H21.23a1.12,1.12,0,1,1,0-2.24h80.91a1.12,1.12,0,1,1,0,2.24Z" transform="translate(-4.43 -1.91)"/><path class="cls-1" d="M30.39,38.17a1.11,1.11,0,0,1-.79-.33L25.72,34l-3.87,3.87a1.12,1.12,0,1,1-1.59-1.59l4.67-4.67a1.14,1.14,0,0,1,1.59,0l4.67,4.67a1.13,1.13,0,0,1-.8,1.92Z" transform="translate(-4.43 -1.91)"/><path class="cls-1" d="M97.47,80.31a1.11,1.11,0,0,1-.79-.33,1.12,1.12,0,0,1,0-1.59l3.87-3.87-3.87-3.87a1.12,1.12,0,1,1,1.59-1.59l4.66,4.67a1.12,1.12,0,0,1,0,1.59L98.27,80A1.13,1.13,0,0,1,97.47,80.31Z" transform="translate(-4.43 -1.91)"/><path class="cls-2" d="M32.47,68.53a1.12,1.12,0,0,1-.89-1.82l18-22.94a1.14,1.14,0,0,1,.85-.43,1,1,0,0,1,.87.37l13,14.5L91.73,37.66a1.12,1.12,0,0,1,1.34,1.8L64.79,60.62a1.12,1.12,0,0,1-1.51-.15L50.5,46.21,33.35,68.1A1.12,1.12,0,0,1,32.47,68.53Z" transform="translate(-4.43 -1.91)"/></svg>