<svg id="레이어_1" data-name="레이어 1" xmlns="http://www.w3.org/2000/svg" viewBox="0 0 36.78 40.86"><defs><style>.cls-1{fill:#fff;}</style></defs><title>구글로고-WHITE</title><path class="cls-1" d="M7,7.9a3,3,0,0,1,.48-1.7A3.16,3.16,0,0,1,8.71,5.07L29.16,25.48,8.71,45.93a3.59,3.59,0,0,1-1.25-1.17A3,3,0,0,1,7,43.1ZM35.63,19l-4.75,4.74L13.31,6.13ZM13.31,44.83,30.88,27.25l4.75,4.69ZM43.43,24.09a2.92,2.92,0,0,1,.34,1.39,2.86,2.86,0,0,1-1.2,2.44l-4.74,2.73-5.17-5.17,5.17-5.17L42.52,23A3,3,0,0,1,43.43,24.09Z" transform="translate(-6.98 -5.07)"/></svg>