<svg id="Layer_1" data-name="Layer 1" xmlns="http://www.w3.org/2000/svg" viewBox="0 0 107.39 115.06"><defs><style>.cls-1{stroke:#000;stroke-miterlimit:10;}.cls-2{fill:#dd1c13;}</style></defs><title>on air</title><path class="cls-1" d="M105.31,104.34H14.47a7.78,7.78,0,0,1-7.78-7.77V42a7.79,7.79,0,0,1,7.78-7.78h10.3a.85.85,0,0,1,0,1.69H14.47A6.09,6.09,0,0,0,8.38,42V96.57a6.09,6.09,0,0,0,6.09,6.09h90.84a6.1,6.1,0,0,0,6.09-6.09V42a6.1,6.1,0,0,0-6.09-6.09H38a.85.85,0,0,1,0-1.69h67.34A7.79,7.79,0,0,1,113.08,42V96.57A7.78,7.78,0,0,1,105.31,104.34Z" transform="translate(-6.19 -4.11)"/><path class="cls-1" d="M57.56,35.94a.85.85,0,0,1-.79-.55L51.36,20.88a.84.84,0,0,1,1.58-.58l5.41,14.5a.85.85,0,0,1-.49,1.09A1,1,0,0,1,57.56,35.94Z" transform="translate(-6.19 -4.11)"/><path class="cls-1" d="M65.94,35.94h-.1A.84.84,0,0,1,65.1,35l2.62-21.31a.85.85,0,0,1,.94-.73.84.84,0,0,1,.73.94L66.78,35.2A.85.85,0,0,1,65.94,35.94Z" transform="translate(-6.19 -4.11)"/><path class="cls-1" d="M50.71,21.43a5,5,0,1,1,5-5A5,5,0,0,1,50.71,21.43Zm0-8.28A3.3,3.3,0,1,0,54,16.45,3.3,3.3,0,0,0,50.71,13.15Z" transform="translate(-6.19 -4.11)"/><path class="cls-1" d="M69.06,14.59a5,5,0,1,1,5-5A5,5,0,0,1,69.06,14.59Zm0-8.29a3.3,3.3,0,1,0,3.3,3.3A3.3,3.3,0,0,0,69.06,6.3Z" transform="translate(-6.19 -4.11)"/><path class="cls-1" d="M84.4,118.67a.84.84,0,0,1-.84-.84v-3.37h-18a.85.85,0,0,1-.84-.85V103.5a.85.85,0,0,1,1.69,0v9.27h18a.85.85,0,0,1,.84.84v4.22A.85.85,0,0,1,84.4,118.67Z" transform="translate(-6.19 -4.11)"/><path class="cls-1" d="M35.37,118.67a.85.85,0,0,1-.84-.84v-4.22a.85.85,0,0,1,.84-.84h18v-2.53a.84.84,0,1,1,1.68,0v3.37a.84.84,0,0,1-.84.85h-18v3.37A.85.85,0,0,1,35.37,118.67Z" transform="translate(-6.19 -4.11)"/><path class="cls-1" d="M112.24,44.93H7.53a.85.85,0,0,1,0-1.69H112.24a.85.85,0,0,1,0,1.69Z" transform="translate(-6.19 -4.11)"/><path class="cls-1" d="M112.24,95.35H7.53a.84.84,0,1,1,0-1.68H112.24a.84.84,0,0,1,0,1.68Z" transform="translate(-6.19 -4.11)"/><path class="cls-2" d="M38,68.75a7.83,7.83,0,0,1-1.76,5.45,6.31,6.31,0,0,1-5,2,6.39,6.39,0,0,1-5-1.93,7.89,7.89,0,0,1-1.75-5.49,7.82,7.82,0,0,1,1.75-5.46,6.47,6.47,0,0,1,5-1.9,6.34,6.34,0,0,1,4.95,1.93A7.88,7.88,0,0,1,38,68.75Zm-11,0a6.38,6.38,0,0,0,1.07,4,3.75,3.75,0,0,0,3.17,1.37,3.79,3.79,0,0,0,3.16-1.35,6.47,6.47,0,0,0,1.06-4,6.5,6.5,0,0,0-1-4,3.75,3.75,0,0,0-3.15-1.36,3.81,3.81,0,0,0-3.19,1.36A6.43,6.43,0,0,0,27,68.75Z" transform="translate(-6.19 -4.11)"/><path class="cls-2" d="M53,76H50.17L43.1,64.51H43l0,.64c.1,1.21.14,2.33.14,3.34V76H41.08V61.59h2.85L51,73H51c0-.15,0-.7-.08-1.64s-.06-1.69-.06-2.22V61.59H53Z" transform="translate(-6.19 -4.11)"/><path class="cls-2" d="M71,76l-1.44-4H64l-1.4,4H60.16l5.38-14.42h2.55L73.46,76Zm-2-6L67.57,66c-.1-.26-.24-.67-.41-1.24s-.29-1-.36-1.23A21.25,21.25,0,0,1,66,66.2l-1.3,3.74Z" transform="translate(-6.19 -4.11)"/><path class="cls-2" d="M75.36,76V61.59H77.7V76Z" transform="translate(-6.19 -4.11)"/><path class="cls-2" d="M83.84,70.21V76H81.5V61.59h4a6.69,6.69,0,0,1,4.12,1A3.74,3.74,0,0,1,91,65.77a3.94,3.94,0,0,1-2.79,3.83L92.27,76H89.6l-3.44-5.74Zm0-1.94h1.63a3.69,3.69,0,0,0,2.38-.61,2.21,2.21,0,0,0,.74-1.81,2,2,0,0,0-.8-1.75,4.39,4.39,0,0,0-2.39-.52H83.84Z" transform="translate(-6.19 -4.11)"/></svg>