<svg id="레이어_1" data-name="레이어 1" xmlns="http://www.w3.org/2000/svg" viewBox="0 0 19.5 20.75">
    <defs>
        <style>
            .active .cls-1{
                fill: black ;
            }
            .cls-1 {
                fill: #e72023;
            }
        </style>
    </defs>
    <title>버튼</title>
    <path class="cls-1"
        d="M10.35.54C5,.54.64,4.19.6,10.91S5,21.28,10.35,21.28s9.79-3.65,9.75-10.37S15.72.54,10.35.54m0,18.62c-4.28,0-7.78-2.92-7.75-8.24s3.47-8.25,7.75-8.25,7.71,2.92,7.74,8.25-3.46,8.24-7.74,8.24"
        transform="translate(-0.6 -0.54)" />
    <path class="cls-1" d="M15.14,7.38c-.21.09-.15.74-.06.94s.49.72.71.62.15-.73.07-.94-.5-.72-.72-.62"
        transform="translate(-0.6 -0.54)" />
    <path class="cls-1"
        d="M16.69,9.22a1.57,1.57,0,0,0-.57.6,1.74,1.74,0,0,0-.67-.5c-.09,0-.14.46,0,1a.72.72,0,0,0,1.42-.11c0-.53-.09-1-.18-1"
        transform="translate(-0.6 -0.54)" />
    <path class="cls-1"
        d="M17,11.31a1.89,1.89,0,0,0-.81.52,1.86,1.86,0,0,0-.62-.74c-.1,0-.28.48-.27,1.11a.84.84,0,0,0,1.62.25c.21-.6.18-1.13.08-1.14"
        transform="translate(-0.6 -0.54)" />
    <path class="cls-1"
        d="M16.85,13.78a2.29,2.29,0,0,0-1.16.18,2.38,2.38,0,0,0-.38-1.12c-.11-.06-.54.39-.81,1.09A1.05,1.05,0,0,0,16.25,15c.5-.56.71-1.14.6-1.22"
        transform="translate(-0.6 -0.54)" />
    <path class="cls-1"
        d="M15.4,15.94a2.49,2.49,0,0,0-1.23-.24,2.52,2.52,0,0,0,0-1.25c-.09-.1-.65.2-1.15.8a1.79,1.79,0,0,0,.08,1.4,1.8,1.8,0,0,0,1.37.3c.68-.39,1.07-.9,1-1"
        transform="translate(-0.6 -0.54)" />
    <path class="cls-1"
        d="M13.15,17.56a2.49,2.49,0,0,0-1.05-.67,2.4,2.4,0,0,0,.42-1.18c0-.13-.68-.06-1.35.33a1.75,1.75,0,0,0-.45,1.33,1.79,1.79,0,0,0,1.16.78c.76-.12,1.32-.45,1.27-.59"
        transform="translate(-0.6 -0.54)" />
    <path class="cls-1" d="M5.55,7.38c.21.09.15.74.07.94s-.5.72-.72.62S4.75,8.21,4.84,8s.51-.72.71-.62"
        transform="translate(-0.6 -0.54)" />
    <path class="cls-1"
        d="M4,9.22a1.59,1.59,0,0,1,.58.6,1.64,1.64,0,0,1,.66-.5c.09,0,.14.46,0,1a.71.71,0,0,1-.87.53.72.72,0,0,1-.55-.64c0-.53.09-1,.18-1"
        transform="translate(-0.6 -0.54)" />
    <path class="cls-1"
        d="M3.71,11.31a1.89,1.89,0,0,1,.81.52,1.76,1.76,0,0,1,.61-.74c.11,0,.29.48.28,1.11a.84.84,0,0,1-1.62.25c-.21-.6-.19-1.13-.08-1.14"
        transform="translate(-0.6 -0.54)" />
    <path class="cls-1"
        d="M3.85,13.78A2.33,2.33,0,0,1,5,14a2.26,2.26,0,0,1,.37-1.12c.11-.06.54.39.81,1.09A1,1,0,0,1,4.44,15c-.49-.56-.71-1.14-.59-1.22"
        transform="translate(-0.6 -0.54)" />
    <path class="cls-1"
        d="M5.28,15.94a2.6,2.6,0,0,1,1.23-.24,2.41,2.41,0,0,1,0-1.25c.09-.1.65.2,1.15.8a1.75,1.75,0,0,1-.08,1.4,1.8,1.8,0,0,1-1.37.3c-.67-.39-1.06-.9-1-1"
        transform="translate(-0.6 -0.54)" />
    <path class="cls-1"
        d="M7.54,17.56a2.49,2.49,0,0,1,1-.67,2.51,2.51,0,0,1-.42-1.18c0-.13.69-.06,1.36.33A1.83,1.83,0,0,1,10,17.37a1.83,1.83,0,0,1-1.17.78c-.76-.12-1.31-.45-1.27-.59"
        transform="translate(-0.6 -0.54)" />
</svg>