<svg id="레이어_1" data-name="레이어 1" xmlns="http://www.w3.org/2000/svg" viewBox="0 0 47.35 47.46"><defs><style>.cls-1,.cls-2{fill:none;stroke:#040000;}.cls-1{stroke-linecap:round;stroke-linejoin:round;}.cls-2{stroke-miterlimit:10;}.cls-3{fill:#cf231b;}</style></defs><title>app</title><line class="cls-1" x1="22.02" y1="3.96" x2="25.33" y2="3.96"/><line class="cls-1" x1="13.14" y1="7.22" x2="34.21" y2="7.22"/><rect class="cls-2" x="14.95" y="11.65" width="17.07" height="17.07" rx="2.71"/><line class="cls-1" x1="24.27" y1="44.83" x2="22.23" y2="44.83"/><rect class="cls-1" x="9.3" y="0.5" width="28.75" height="46.46" rx="3.85"/><line class="cls-1" x1="29.74" y1="42.82" x2="16.77" y2="42.82"/><path class="cls-1" d="M5.91,20.64C3.14,21.93,1.5,23.51,1.5,25.23c0,4.32,10.38,7.83,23.17,7.83s23.18-3.51,23.18-7.83c0-1.72-1.64-3.3-4.41-4.59" transform="translate(-1 -1.5)"/><polyline class="cls-1" points="20.9 28.33 24.13 31.56 20.9 34.79"/><path class="cls-3" d="M22.25,22.44H20.89l-.36,1.14h-.48l1.26-3.73h.53l1.26,3.73h-.49Zm-.12-.37L22,21.5c-.13-.43-.25-.83-.37-1.26h0c-.12.43-.24.83-.37,1.26l-.19.57Z" transform="translate(-1 -1.5)"/><path class="cls-3" d="M23.63,19.85h1.06c.84,0,1.4.28,1.4,1.1s-.56,1.15-1.37,1.15H24.1v1.48h-.47Zm1,1.87c.65,0,1-.24,1-.77s-.33-.71-1-.71H24.1v1.48Z" transform="translate(-1 -1.5)"/><path class="cls-3" d="M26.84,19.85H27.9c.84,0,1.4.28,1.4,1.1s-.56,1.15-1.37,1.15h-.62v1.48h-.47Zm1,1.87c.65,0,1-.24,1-.77s-.34-.71-1-.71h-.54v1.48Z" transform="translate(-1 -1.5)"/></svg>