<svg id="Layer_1" data-name="Layer 1" xmlns="http://www.w3.org/2000/svg" viewBox="0 0 124.22 97.14"><defs><style>.cls-1,.cls-2{fill:none;stroke-linecap:round;stroke-linejoin:round;stroke-width:4px;}.cls-1{stroke:#000;}.cls-2{stroke:#dd1c13;}</style></defs><title>처다보다</title><path class="cls-1" d="M41,60.37l-1,1.5a4.26,4.26,0,0,0,3.56,6.62H50.1V82a8.32,8.32,0,0,0,11.71,7.6l6.94-3.1v16" transform="translate(-5.28 -7.34)"/><path class="cls-1" d="M121.61,31.72A37.32,37.32,0,0,0,57.68,24.1" transform="translate(-5.28 -7.34)"/><path class="cls-1" d="M104.58,102.48V79.71a37.34,37.34,0,0,0,19.47-26.15" transform="translate(-5.28 -7.34)"/><path class="cls-1" d="M42.42,21.54h8.11a0,0,0,0,1,0,0v27a0,0,0,0,1,0,0H42.42a3.89,3.89,0,0,1-3.89-3.89V25.43A3.89,3.89,0,0,1,42.42,21.54Z"/><polyline class="cls-1" points="55.82 21.54 60.83 21.54 60.83 48.57 55.82 48.57"/><polyline class="cls-1" points="66.87 30.53 122.22 30.53 122.22 39.59 66.87 39.59"/><line class="cls-2" x1="2" y1="5.01" x2="30.7" y2="24.44"/><line class="cls-2" x1="30.7" y1="45.67" x2="2" y2="65.1"/></svg>