<svg id="Layer_1" data-name="Layer 1" xmlns="http://www.w3.org/2000/svg" viewBox="0 0 119.54 99.06"><defs><style>.cls-1,.cls-2{fill:none;}.cls-1{stroke:#dd1c13;stroke-dasharray:3 5;}.cls-1,.cls-2,.cls-3{stroke-linecap:round;stroke-linejoin:round;stroke-width:3px;}.cls-2,.cls-3{stroke:#000;}.cls-3{fill:#fff;}</style></defs><title>눈</title><circle class="cls-1" cx="62.45" cy="49.53" r="37.06"/><path class="cls-2" d="M118.56,56.56S94.79,82.34,65.48,82.34,12.41,56.56,12.41,56.56,36.17,30.79,65.48,30.79,118.56,56.56,118.56,56.56Z" transform="translate(-3.03 -7.03)"/><circle class="cls-2" cx="62.45" cy="49.53" r="20.22"/><circle class="cls-2" cx="62.45" cy="49.53" r="8.57"/><line class="cls-3" x1="62.45" y1="36.82" x2="62.45" y2="33.43"/><line class="cls-3" x1="53.46" y1="40.54" x2="51.06" y2="38.14"/><line class="cls-3" x1="49.74" y1="49.53" x2="46.35" y2="49.53"/><line class="cls-3" x1="53.46" y1="58.52" x2="51.06" y2="60.92"/><line class="cls-3" x1="62.45" y1="62.24" x2="62.45" y2="65.63"/><line class="cls-3" x1="71.44" y1="58.52" x2="73.84" y2="60.92"/><line class="cls-3" x1="75.16" y1="49.53" x2="78.55" y2="49.53"/><line class="cls-3" x1="71.44" y1="40.54" x2="73.84" y2="38.14"/><polyline class="cls-2" points="81.98 18.04 93.59 6.42 108.19 6.42"/><rect class="cls-2" x="108.19" y="1.5" width="9.85" height="9.85"/><polyline class="cls-2" points="40.04 79.05 26.63 92.46 11.96 92.46"/><rect class="cls-2" x="1.5" y="87.71" width="9.85" height="9.85"/></svg>